<?xml version="1.0" standalone="no"?>
<!DOCTYPE svg PUBLIC "-//W3C//DTD SVG 20010904//EN"
 "http://www.w3.org/TR/2001/REC-SVG-20010904/DTD/svg10.dtd">
<svg version="1.0" xmlns="http://www.w3.org/2000/svg"
 width="700.000000pt" height="700.000000pt" viewBox="0 0 700.000000 700.000000"
 preserveAspectRatio="xMidYMid meet">
<metadata>
Created by potrace 1.14, written by Peter Selinger 2001-2017
</metadata>
<g transform="translate(0.000000,700.000000) scale(0.100000,-0.100000)"
fill="#000000" stroke="none">
<path d="M4129 6984 c-7 -8 -12 -34 -12 -57 0 -23 2 -94 3 -157 3 -163 -10
-252 -60 -401 -69 -207 -135 -301 -316 -456 -60 -51 -260 -201 -337 -253 -176
-118 -394 -298 -516 -426 -209 -219 -327 -421 -366 -630 -53 -279 68 -609 354
-964 141 -175 435 -451 479 -450 27 1 52 25 52 50 0 12 -18 63 -41 113 -23 51
-49 110 -59 132 -104 231 -218 595 -246 785 -3 19 -7 46 -10 60 -12 62 -6 236
9 273 28 65 84 142 170 228 96 98 108 109 292 259 331 270 511 439 637 596
271 340 315 721 132 1138 -65 149 -125 208 -165 160z"/>
<path d="M4745 5535 c-16 -7 -59 -26 -95 -40 -76 -31 -399 -192 -456 -227 -21
-13 -50 -29 -64 -36 -14 -6 -34 -18 -45 -24 -369 -236 -562 -432 -634 -645
-37 -110 -18 -356 41 -528 38 -111 95 -206 246 -410 83 -111 86 -116 99 -147
17 -41 9 -168 -17 -263 -12 -44 -25 -84 -28 -90 -16 -25 -41 -113 -42 -142 0
-22 6 -36 20 -43 32 -17 96 21 191 114 224 218 317 387 323 588 5 167 -30 259
-198 533 -111 180 -130 228 -123 320 7 90 26 140 84 229 55 83 259 291 423
431 126 107 121 103 235 194 153 123 165 141 125 181 -23 23 -44 25 -85 5z"/>
<path d="M5518 3314 c-2 -1 -33 -5 -70 -8 -138 -13 -369 -89 -419 -138 -54
-54 -14 -90 116 -102 94 -9 119 -13 143 -20 11 -4 31 -9 44 -11 40 -8 151 -58
188 -84 136 -100 158 -230 66 -391 -51 -91 -209 -264 -345 -380 -29 -25 -65
-55 -80 -68 -14 -13 -64 -51 -111 -84 -112 -80 -140 -107 -140 -133 0 -63 70
-64 253 -5 220 70 416 158 567 255 87 55 244 208 284 278 58 99 77 166 77 279
-1 177 -70 356 -182 467 -51 51 -149 107 -204 117 -17 2 -37 7 -45 9 -32 10
-138 24 -142 19z"/>
<path d="M2408 3215 c-2 -2 -50 -6 -108 -9 -58 -4 -116 -8 -130 -10 -14 -2
-52 -7 -85 -11 -33 -4 -67 -9 -75 -10 -155 -29 -201 -39 -257 -56 -131 -41
-245 -117 -277 -184 -63 -133 42 -275 267 -360 124 -46 347 -96 497 -110 36
-3 79 -8 95 -10 179 -23 1023 -23 1165 -1 14 3 60 7 103 11 43 4 90 8 105 11
15 2 41 6 57 9 17 2 48 7 70 10 22 3 51 8 65 11 14 2 36 6 50 9 288 54 529
130 724 226 227 113 281 164 226 214 -22 20 -51 18 -175 -9 -38 -8 -86 -17
-105 -20 -19 -3 -44 -7 -55 -10 -19 -3 -84 -13 -152 -22 -18 -2 -48 -6 -65 -8
-18 -3 -60 -8 -93 -11 -33 -3 -73 -8 -90 -10 -16 -2 -68 -7 -115 -10 -47 -3
-107 -8 -135 -10 -219 -16 -385 -20 -825 -20 -447 0 -633 5 -735 19 -16 3 -55
7 -85 10 -115 12 -155 19 -183 31 l-29 12 28 19 c79 53 249 115 464 168 129
32 162 62 126 111 -12 16 -29 19 -139 21 -69 1 -127 1 -129 -1z"/>
<path d="M2281 2384 c-304 -90 -409 -236 -270 -374 89 -88 386 -191 619 -216
36 -3 68 -8 71 -10 39 -22 629 -22 819 0 19 3 65 7 102 11 37 3 77 8 90 10 48
8 95 14 148 20 30 3 62 8 70 10 8 2 29 7 45 9 94 16 383 67 403 71 12 3 32 7
45 10 24 6 49 11 86 19 220 48 253 78 169 151 -67 57 -277 195 -296 195 -10 0
-58 -9 -107 -20 -130 -28 -352 -68 -415 -75 -30 -3 -80 -10 -110 -15 -30 -5
-82 -12 -115 -15 -33 -3 -91 -9 -130 -14 -86 -11 -725 -11 -815 0 -36 4 -92
10 -125 14 -68 7 -166 28 -207 44 -39 15 -35 41 9 71 70 48 80 73 43 110 -25
25 -26 25 -129 -6z"/>
<path d="M2456 1663 c-1 -1 -17 -5 -35 -8 -147 -26 -258 -112 -269 -210 -14
-126 73 -231 249 -301 58 -22 216 -66 279 -77 59 -11 112 -19 133 -22 12 -1
47 -5 77 -9 92 -12 131 -15 245 -22 201 -11 534 -7 610 7 23 4 63 10 91 13 27
4 58 8 69 10 11 2 40 7 65 12 25 4 47 8 50 9 36 7 90 18 110 21 41 7 259 72
334 99 125 45 159 74 139 118 -11 23 -192 143 -329 218 l-59 32 -100 -12 c-55
-7 -107 -13 -115 -15 -8 -1 -35 -6 -60 -11 -25 -4 -54 -9 -65 -11 -10 -2 -37
-6 -60 -9 -22 -3 -66 -10 -97 -16 -107 -18 -143 -20 -378 -20 -240 -1 -343 4
-440 21 -30 5 -79 11 -108 15 -30 3 -57 7 -60 9 -4 2 -25 7 -46 10 -103 17
-123 28 -101 59 8 12 15 34 15 48 0 22 -6 30 -32 38 -27 9 -104 11 -112 4z"/>
<path d="M1890 1177 c-3 -3 -50 -8 -105 -12 -101 -6 -146 -10 -220 -19 -22 -3
-62 -8 -90 -11 -139 -18 -302 -60 -402 -105 -234 -106 -218 -337 34 -463 108
-54 279 -105 443 -132 19 -3 46 -7 60 -10 14 -3 48 -7 75 -11 28 -3 61 -7 75
-9 25 -4 75 -9 210 -20 41 -3 91 -8 110 -10 49 -6 210 -15 370 -21 148 -5 964
-5 1100 0 165 6 371 17 388 21 9 1 58 6 107 10 50 4 104 8 120 10 17 3 68 9
115 14 233 28 590 84 609 95 3 2 24 7 46 10 130 21 450 124 585 189 170 82
243 172 225 278 -8 47 -54 113 -98 139 -40 25 -49 25 -78 2 -20 -17 -21 -22
-11 -62 6 -23 8 -49 5 -57 -19 -49 -373 -152 -688 -199 -16 -3 -52 -9 -80 -14
-27 -6 -70 -13 -95 -16 -25 -3 -56 -8 -70 -10 -14 -2 -50 -6 -80 -10 -30 -3
-57 -7 -60 -9 -3 -2 -45 -6 -95 -10 -49 -4 -92 -9 -95 -10 -5 -3 -61 -8 -210
-20 -36 -3 -87 -8 -115 -10 -164 -16 -300 -19 -735 -19 -267 -1 -539 3 -605 7
-222 15 -240 16 -285 22 -25 3 -71 8 -102 10 -31 2 -74 6 -95 9 -21 3 -76 10
-123 16 -134 17 -162 21 -215 32 -27 5 -63 12 -80 14 -91 15 -301 79 -310 94
-13 21 282 134 408 155 66 12 159 35 178 45 19 11 26 54 11 77 -8 12 -123 29
-132 20z"/>
<path d="M5946 747 c-11 -7 -48 -33 -84 -59 -131 -96 -391 -211 -638 -282 -86
-25 -105 -30 -163 -42 -12 -3 -51 -11 -85 -19 -33 -7 -81 -16 -106 -19 -25 -3
-72 -8 -104 -12 -66 -7 -78 -9 -186 -18 -255 -23 -525 -29 -1240 -28 -633 0
-865 4 -1241 17 -178 7 -181 6 -194 -46 -12 -47 26 -64 225 -98 63 -11 130
-22 148 -25 38 -7 88 -15 122 -21 14 -2 48 -6 75 -10 28 -3 59 -7 70 -9 18 -3
75 -10 175 -21 43 -5 159 -16 330 -31 257 -22 1133 -22 1325 1 17 2 66 6 110
9 44 4 94 8 110 10 17 2 57 7 90 10 112 12 203 24 275 36 30 5 71 12 90 15
245 40 410 86 554 155 187 89 332 215 394 342 40 84 42 130 7 146 -31 14 -35
14 -59 -1z"/>
</g>
</svg>
